<svg preserveAspectRatio="none" width="100%" height="100%" overflow="visible" style="display: block;" viewBox="0 0 25 20" fill="none" xmlns="http://www.w3.org/2000/svg">
<path id="Vector" d="M0.0843333 1.82619L11.0911 12.7636C11.4167 13.0873 11.8516 13.2795 12.3116 13.303C12.7717 13.3264 13.2241 13.1795 13.5814 12.8905L13.7227 12.7636L24.722 1.83358C24.758 1.96913 24.7816 2.10714 24.794 2.24884L24.8039 2.46449V17.2514C24.8041 17.8732 24.5677 18.472 24.1422 18.9279C23.7167 19.3838 23.1335 19.6631 22.5095 19.7097L22.3235 19.7159H2.48039C1.85461 19.7161 1.25189 19.4813 0.793044 19.0585C0.334196 18.6357 0.053134 18.0563 0.00620111 17.4362L0 17.2514V2.46449C0 2.31662 0.0124019 2.17368 0.0372058 2.0332L0.0843333 1.82619ZM22.3235 0C22.4735 0 22.6211 0.0123226 22.7638 0.0381997L22.9746 0.0862573L12.4081 10.585L1.83797 0.0837924C1.97439 0.0468251 2.11577 0.0221803 2.25963 0.00985782L2.48039 0H22.3235Z" fill="var(--fill-0, #854D16)"/>
</svg>
