<svg width="951" height="229" viewBox="0 0 951 229" fill="none" xmlns="http://www.w3.org/2000/svg">
<g filter="url(#filter0_d_7_95)">
<path d="M62.4537 31.7179C43.5538 31.6512 39.8544 59.8383 39.6829 108.438C39.5115 157.038 43.012 185.25 61.9119 185.317C76.9118 185.37 83.572 168.293 83.6832 136.793L123.283 136.933C123.1 188.833 107.102 216.677 61.8018 216.517C9.00211 216.33 0.148217 174.899 0.38317 108.299C0.618123 41.6998 11.5652 0.0381421 64.6648 0.22547C109.665 0.384222 123.66 30.1338 123.482 80.5335L83.8821 80.3938C83.9943 48.594 77.4536 31.7708 62.4537 31.7179ZM154.069 3.84089L234.769 4.12558L252.928 214.191L215.128 214.058L211.676 172.045L175.976 171.919L172.228 213.906L134.428 213.773L154.069 3.84089ZM179.087 140.43L208.787 140.535L199.858 35.5026L188.758 35.4635L179.087 140.43ZM345.02 105.015L368.174 4.59622L420.074 4.77931L419.333 214.778L381.533 214.645L381.947 97.3454L353.333 214.545L335.933 214.484L308.147 97.085L307.733 214.384L269.934 214.251L270.675 4.25225L322.574 4.43535L345.02 105.015ZM500.525 5.06313C534.121 6.08167 550.536 30.4397 550.402 68.2395C550.262 107.839 529.18 131.165 488.38 131.021L480.88 130.995L480.584 214.994L442.784 214.861L443.525 4.86204L500.525 5.06313ZM488.791 99.5223C502.591 99.571 510.731 88.1997 510.802 68.0998C510.87 48.8999 504.914 36.5788 490.814 36.5291L481.214 36.4952L480.991 99.4948L488.791 99.5223ZM564.52 5.2889L659.62 5.62439L659.509 37.1242L602.209 36.9221L601.958 108.022L644.858 108.173L644.747 139.673L601.847 139.521L601.579 215.421L563.78 215.288L564.52 5.2889ZM709.391 215.801L671.591 215.668L672.332 5.66924L710.132 5.80259L709.391 215.801ZM945.55 38.1333L897.55 37.964L897.426 73.0638L931.026 73.1823L930.915 104.682L897.315 104.564L897.208 134.863L945.208 135.033L945.097 166.533L859.297 166.23L859.862 6.33082L945.661 6.6335L945.55 38.1333ZM803.341 125.532C824.494 167.007 848.421 187.792 902.721 187.983C914.721 188.025 927.924 187.172 943.231 185.126L943.12 216.626C925.112 218.962 909.208 220.106 895.108 220.057C826.408 219.814 796.204 192.707 770.897 137.718L770.621 216.017L732.821 215.884L733.562 5.88525L790.862 6.0874C825.362 6.20911 842.37 32.3693 842.248 66.8691C842.152 94.1689 829.17 117.223 803.341 125.532ZM780.639 97.5519C795.339 97.6038 802.886 84.4303 802.95 66.1304C803.01 49.3305 796.451 37.6073 782.951 37.5597L771.251 37.5184L771.039 97.518L780.639 97.5519Z" fill="#FCF5ED"/>
</g>
<defs>
<filter id="filter0_d_7_95" x="0" y="0" width="950.673" height="228.232" filterUnits="userSpaceOnUse" color-interpolation-filters="sRGB">
<feFlood flood-opacity="0" result="BackgroundImageFix"/>
<feColorMatrix in="SourceAlpha" type="matrix" values="0 0 0 0 0 0 0 0 0 0 0 0 0 0 0 0 0 0 127 0" result="hardAlpha"/>
<feOffset dx="5" dy="8"/>
<feComposite in2="hardAlpha" operator="out"/>
<feColorMatrix type="matrix" values="0 0 0 0 0 0 0 0 0 0 0 0 0 0 0 0 0 0 0.25 0"/>
<feBlend mode="normal" in2="BackgroundImageFix" result="effect1_dropShadow_7_95"/>
<feBlend mode="normal" in="SourceGraphic" in2="effect1_dropShadow_7_95" result="shape"/>
</filter>
</defs>
</svg>
